<svg width="357" height="94" viewBox="0 0 357 94" fill="none" xmlns="http://www.w3.org/2000/svg">
<mask id="mask0_24_2" style="mask-type:luminance" maskUnits="userSpaceOnUse" x="0" y="0" width="85" height="94">
<path d="M85 0.929314L1.45496 0L1.27415e-05 93.0707L83.5451 94L85 0.929314Z" fill="white"/>
</mask>
<g mask="url(#mask0_24_2)">
<path d="M71.4808 82.5736C63.5339 89.7157 52.846 93.6588 41.768 93.5356C30.69 93.4123 20.1291 89.2329 12.4082 81.9165C12.0089 81.538 11.6271 81.1598 11.2441 80.7702C9.20735 78.6744 7.42328 76.3804 5.92316 73.9285C6.52944 74.1185 7.13314 74.301 7.74381 74.4699C7.75843 74.4762 7.77376 74.481 7.78952 74.4841L7.80572 74.4843C8.44994 74.6673 9.08753 74.8427 9.72532 75.0044C9.88549 75.0423 10.0374 75.0864 10.1894 75.1342C10.7963 75.2819 11.4005 75.4295 12.02 75.5561C12.1891 75.6047 12.3613 75.644 12.5355 75.674C12.9998 75.7851 13.4779 75.8815 13.9493 75.9715C14.2765 76.0387 14.6227 76.1037 14.9379 76.1658C15.4241 76.2547 15.9024 76.3386 16.3889 76.4138C16.7095 76.4735 17.0127 76.5193 17.3404 76.5578C17.7512 76.6334 18.1691 76.6917 18.5884 76.7413C18.9522 76.8014 19.3176 76.8479 19.6912 76.8869C20.2007 76.9562 20.7105 77.0105 21.2354 77.0512C21.4484 77.0823 21.6695 77.1059 21.8976 77.1222C22.4533 77.1782 23.0092 77.2193 23.5733 77.253C23.8702 77.2775 24.167 77.302 24.4789 77.313C24.7907 77.3239 25.1266 77.3551 25.4547 77.3662C26.0634 77.4004 26.6806 77.4148 27.2991 77.4291C27.3749 77.4362 27.4513 77.4371 27.5273 77.4317C28.1214 77.452 28.724 77.445 29.3184 77.4441C29.7235 77.4561 30.1195 77.4455 30.5075 77.4287C30.9505 77.4336 31.3843 77.4185 31.8196 77.4021C32.0709 77.3974 32.3156 77.3864 32.5523 77.3679C33.1322 77.3456 33.7123 77.3097 34.291 77.275C34.5885 77.2571 34.8942 77.2318 35.1919 77.2002C35.6191 77.1763 36.0397 77.1461 36.4526 77.0896C36.8584 77.0592 37.2644 77.0138 37.6583 76.9621C38.0168 76.9312 38.3768 76.8853 38.7206 76.8405C39.178 76.7895 39.6289 76.7259 40.0744 76.6586C40.5199 76.5912 40.991 76.5279 41.4502 76.4482C41.6612 76.424 41.8706 76.3888 42.0773 76.343C42.7193 76.2367 43.3615 76.1179 43.9957 75.9903C44.7913 75.8445 45.5794 75.6775 46.3595 75.4892C46.7038 75.4145 47.0373 75.3346 47.3764 75.2511C50.1194 74.5847 52.816 73.764 55.4513 72.7938C55.8261 72.6645 56.1944 72.5277 56.5628 72.3772C56.9703 72.2334 57.3674 72.0695 57.7671 71.9044C58.0974 71.7746 58.4346 71.6375 58.7651 71.4941C59.1322 71.3435 59.5008 71.1781 59.8626 71.0213C61.182 70.4437 62.4803 69.8323 63.7565 69.1707C64.0792 69.006 64.3938 68.8474 64.7099 68.6751C64.9182 68.5714 65.1102 68.4688 65.3106 68.3576L66.2795 67.8198C67.5945 67.0864 68.8794 66.3015 70.1499 65.4777L71.0057 64.9175L71.3907 64.6549C71.7292 64.4334 72.0607 64.2048 72.3849 63.969C72.878 63.6229 73.3711 63.2768 73.8495 62.9156C73.986 62.8261 74.1037 62.7289 74.2282 62.6318C74.5589 62.3861 74.8912 62.133 75.2152 61.8822C75.5393 61.6315 75.8718 61.3621 76.1961 61.0989C76.4272 60.9182 76.6517 60.73 76.8803 60.5368C77.6221 59.9257 78.3482 59.3004 79.0589 58.6609C79.4234 58.3333 79.7783 58.0143 80.1199 57.6752C80.3049 57.509 80.483 57.3489 80.6614 57.1751C81.28 56.576 81.8837 55.978 82.4728 55.3662L82.4961 55.3452C82.6429 55.1985 82.7911 55.053 82.93 54.8987C83.3254 54.4879 83.7047 54.077 84.0935 53.6649C84.1069 53.6532 84.1174 53.6388 84.1238 53.6228C84.1876 55.435 84.1142 57.2494 83.9039 59.0526L83.9032 59.095C83.9031 59.1024 83.9001 59.1095 83.8948 59.1149C82.845 68.025 78.4537 76.3234 71.4808 82.5736Z" fill="#FFA200"/>
<path d="M79.0664 58.6647C69.8211 66.9808 58.3177 72.8409 45.7734 75.6249C33.2293 78.4088 20.111 78.0131 7.80681 74.4793C7.78507 74.4803 7.7635 74.4753 7.74489 74.4649L7.73003 74.4647C7.12354 74.2884 6.51984 74.1059 5.92424 73.9235C4.13776 71.002 2.78155 67.8728 1.89139 64.6187C1.2454 62.2673 0.839286 59.8647 0.678349 57.4424C1.22693 57.4348 1.76887 57.4196 2.31769 57.397L2.33254 57.3972C2.34492 57.3937 2.35812 57.3939 2.37036 57.3976L2.37847 57.3977C20.002 56.7377 36.7495 50.0694 49.3809 38.6825C54.8311 33.7858 59.4092 28.1255 62.9453 21.9119L62.9454 21.9044C62.9605 21.8909 62.9689 21.8698 62.984 21.8562L62.9691 21.8548C62.9776 21.8395 62.9882 21.8254 63.0009 21.8128C63.3218 21.2466 63.636 20.6728 63.9355 20.0989L72.3338 28.0596C79.5911 34.9182 83.7993 44.0404 84.1313 53.6328C83.6034 54.218 83.0608 54.7892 82.5034 55.3603C81.4105 56.4877 80.2653 57.5871 79.0664 58.6647Z" fill="#800020"/>
<path d="M49.3803 38.6825C48.8623 39.148 48.3364 39.606 47.8107 40.0515C47.4711 40.3432 47.1264 40.6199 46.7842 40.9053C45.3939 42.0428 43.959 43.1244 42.4795 44.1502C42.1011 44.4203 41.7242 44.6767 41.338 44.9255C40.8765 45.2445 40.4072 45.5385 39.9295 45.8462C39.4819 46.1367 39.0358 46.4123 38.5749 46.6889C38.4658 46.7575 38.3513 46.8198 38.2435 46.8897C37.8658 47.1174 37.4731 47.3449 37.0887 47.5663C35.0881 48.7128 33.026 49.7652 30.9104 50.7193C30.4954 50.9117 30.0819 51.0904 29.674 51.2616C29.6279 51.287 29.5791 51.3078 29.5285 51.3236C29.1068 51.5084 28.7002 51.6797 28.2774 51.8508C28.155 51.9068 28.0177 51.9614 27.879 52.0159C27.4263 52.2004 26.9738 52.3712 26.5199 52.5432C26.0062 52.7407 25.4844 52.9319 24.9629 53.1093C24.4414 53.2868 23.8831 53.4838 23.3331 53.6685C22.828 53.8312 22.3149 53.9875 21.8166 54.1503C21.2737 54.3126 20.7512 54.4689 20.2235 54.6101C19.6958 54.7514 19.1585 54.9012 18.6228 55.0362C18.087 55.1711 17.5513 55.306 17.0238 55.4336C16.4963 55.5611 15.9392 55.6821 15.3972 55.7895C14.8552 55.8969 14.3198 56.0094 13.7711 56.1093C12.6872 56.3142 11.6036 56.4991 10.5204 56.6566C9.43721 56.8142 8.33559 56.9415 7.24352 57.0628C5.61998 57.2205 3.99709 57.3371 2.35878 57.4025L2.35068 57.4024C2.33582 57.4022 2.33582 57.4022 2.32772 57.4021L2.32437 57.4046L2.32023 57.4054L2.31611 57.4045L2.31286 57.402C1.76404 57.4245 1.20724 57.4395 0.658656 57.4471C0.521149 55.3843 0.563446 53.3143 0.785144 51.257C0.792648 51.2366 0.795741 51.2149 0.794242 51.1935C1.76818 42.1583 6.17832 33.7261 13.2419 27.3935L43.2232 0.464625L63.9336 20.0926C63.6342 20.6665 63.3281 21.2329 62.9992 21.7928L62.999 21.8065C62.9864 21.8191 62.9756 21.8333 62.9673 21.8486L62.9753 21.8561L62.952 21.8758C62.9474 21.8793 62.9435 21.8836 62.9409 21.8885C62.9382 21.8934 62.9368 21.8988 62.9367 21.9043L62.9366 21.9118C62.9142 21.9445 62.8959 21.9794 62.8823 22.0159L62.6714 22.3727C62.1121 23.3489 61.5151 24.3157 60.8807 25.2727C60.4652 25.9227 60.0214 26.5723 59.5697 27.2144C58.7517 28.3798 57.8826 29.5358 56.9623 30.6826C56.7365 30.9544 56.5269 31.2264 56.2931 31.4906C55.7424 32.1527 55.1823 32.8086 54.6008 33.4567C54.3916 33.7037 54.1662 33.9505 53.9411 34.1737C53.5383 34.6193 53.1167 35.0585 52.6939 35.4902C51.6339 36.583 50.5293 37.6471 49.3803 38.6825Z" fill="#FFA200"/>
<g style="mix-blend-mode:multiply" opacity="0.15">
<path d="M1.89132 64.6237C1.24533 62.2723 0.839221 59.8697 0.678283 57.4474C18.9004 57.1649 36.3294 50.4496 49.3809 38.6826C55.3633 33.3106 60.2881 27.02 63.9342 20.0927C63.9342 20.0927 55.9975 51.3924 1.89132 64.6237Z" fill="black"/>
</g>
<g style="mix-blend-mode:multiply" opacity="0.15">
<path d="M11.2454 80.7702C9.20865 78.6744 7.42459 76.3804 5.92445 73.9285C18.4382 77.8675 31.8982 78.5258 44.8099 75.8302C57.7217 73.1347 69.5795 67.1907 79.0671 58.6584C80.8462 57.059 82.5368 55.3774 84.132 53.6204C84.132 53.6204 62.8168 87.1976 11.2454 80.7702Z" fill="black"/>
</g>
<g style="mix-blend-mode:multiply" opacity="0.25">
<path d="M75.6803 62.1518C75.002 62.6795 74.2922 63.2343 73.551 63.8163C72.8019 64.379 72.0606 65.0465 71.1971 65.5855C70.3506 66.1521 69.4647 66.7407 68.5624 67.3428C67.6758 67.9738 66.6696 68.4751 65.6852 69.0563C64.6841 69.6654 63.6471 70.2224 62.5791 70.7249C61.4903 71.2414 60.4014 71.7629 59.2839 72.3004C58.1404 72.7726 56.973 73.2235 55.7865 73.6828C54.6197 74.176 53.3797 74.5138 52.1603 74.9154L50.3221 75.4997C49.7018 75.6835 49.0661 75.8236 48.4394 75.9862C47.1841 76.2677 45.9354 76.6403 44.6597 76.8443C43.3904 77.0696 42.1211 77.2949 40.86 77.5127C38.3853 77.8549 35.8933 78.0769 33.394 78.1778C31.0596 78.2768 28.7215 78.2674 26.3887 78.1497C25.2771 78.0526 24.1952 77.9557 23.151 77.8643C22.633 77.8162 22.1232 77.7619 21.6215 77.7139C21.1268 77.6448 20.6323 77.562 20.1606 77.487C19.2025 77.3354 18.2983 77.1907 17.4238 77.0476C16.5494 76.9044 15.7518 76.6774 14.9842 76.5217C13.4662 76.152 12.1358 75.8779 11.0661 75.5206C9.07083 74.9149 7.8882 74.5215 7.74309 74.4712C7.7617 74.4815 7.78326 74.4866 7.805 74.4856C20.1099 78.0188 33.2289 78.4138 45.7735 75.6288C58.3179 72.8437 69.8214 66.9823 79.0661 58.6648C80.265 57.5872 81.4102 56.4878 82.5032 55.3541C82.3327 55.548 81.5408 56.4269 80.2548 57.8053C79.8664 58.1949 79.5098 58.6273 78.9919 59.0929L77.4443 60.5257L75.6803 62.1518Z" fill="black"/>
</g>
<g style="mix-blend-mode:multiply" opacity="0.25">
<path d="M2.37889 57.3967L2.38892 57.3968C2.36038 57.4045 2.35048 57.3964 2.33209 57.3962C2.34738 57.3926 2.36371 57.3927 2.37889 57.3967Z" fill="black"/>
</g>
<g style="mix-blend-mode:multiply" opacity="0.25">
<path d="M62.9857 21.8548C62.9698 21.8724 62.9561 21.891 62.9449 21.9103L62.945 21.9028C62.9453 21.8817 62.9751 21.8683 62.9841 21.8473C62.9947 21.8321 63.0085 21.8181 63.0246 21.8054C63.0246 21.8054 63.0052 21.8276 62.9857 21.8548Z" fill="black"/>
</g>
<g style="mix-blend-mode:multiply" opacity="0.25">
<path d="M49.3454 39.9063C47.7087 41.402 45.9841 42.8133 44.1796 44.1341C42.3236 45.5001 40.3927 46.7769 38.3948 47.9597C37.379 48.5544 36.3636 49.134 35.3192 49.6573L33.7667 50.4554C33.2361 50.6989 32.7135 50.9424 32.1842 51.1859C31.6549 51.4294 31.1324 51.6729 30.61 51.9077C30.0811 52.12 29.5441 52.3397 29.0222 52.5446C27.963 52.983 26.9049 53.3515 25.855 53.7126C24.8129 54.095 23.7705 54.4075 22.7446 54.7053C21.7186 55.0031 20.7 55.2661 19.7129 55.502C18.7335 55.7579 17.7697 55.9723 16.8213 56.1456C15.881 56.3246 14.9705 56.499 14.0917 56.6276C13.2129 56.7563 12.3732 56.8978 11.5708 56.9799C10.7685 57.062 9.99869 57.1319 9.28039 57.1938C7.83851 57.3111 6.57622 57.347 5.54987 57.4129C3.74214 57.4277 2.62121 57.4077 2.37809 57.405C20.0027 56.743 36.7504 50.0718 49.3807 38.6824C54.8308 33.7856 59.409 28.1253 62.9451 21.9118C62.8905 22.0358 62.7888 22.2329 62.6464 22.5318C62.4257 22.9944 62.088 23.6802 61.6169 24.5265C60.3184 26.8859 58.8461 29.1608 57.2105 31.3348C56.1217 32.7959 54.9544 34.2061 53.7132 35.5599C52.3493 37.0852 50.8909 38.5364 49.3454 39.9063Z" fill="black"/>
</g>
<g style="mix-blend-mode:screen" opacity="0.4">
<path d="M79.0661 58.6647C69.8206 66.9808 58.3172 72.841 45.773 75.6249C33.2287 78.4088 20.1104 78.0131 7.8063 74.4793C8.10269 74.5312 9.30281 74.7565 11.18 75.1402C12.2566 75.4016 13.6131 75.5613 15.1416 75.7828C16.6707 76.0491 18.4221 76.1783 20.3093 76.3539C20.7896 76.3942 21.2765 76.442 21.7633 76.4948C22.2589 76.5078 22.7611 76.5271 23.2729 76.5402C24.3002 76.5866 25.3602 76.6196 26.4496 76.6666C28.6229 76.5998 30.9174 76.6452 33.2836 76.4184C35.656 76.3202 38.0641 75.923 40.5315 75.6201C41.7543 75.3943 42.9801 75.1664 44.2085 74.9366C45.4465 74.7247 46.6493 74.3516 47.8695 74.0697C48.4824 73.9219 49.1017 73.7941 49.6989 73.6187L51.4921 73.0614C52.6787 72.6868 53.8885 72.3774 55.032 71.9039C56.1748 71.474 57.3177 71.0428 58.4523 70.619C59.5501 70.1325 60.6398 69.6459 61.7075 69.1778C62.7951 68.7398 63.7811 68.1461 64.7884 67.6573C65.7868 67.1336 66.7935 66.6822 67.686 66.1061C69.5107 65.0043 71.2796 64.0141 72.7744 62.9335C73.5457 62.4222 74.2856 61.923 74.9861 61.4458C75.6696 60.9322 76.3055 60.4393 76.9002 59.9821C77.495 59.5249 78.0652 59.0874 78.5834 58.6917C79.0836 58.3233 79.5254 57.8868 79.9428 57.5399C81.3795 56.2891 82.2911 55.525 82.4923 55.3589C81.4101 56.4877 80.2649 57.5871 79.0661 58.6647Z" fill="white"/>
</g>
<g style="mix-blend-mode:screen" opacity="0.4">
<path d="M49.3805 38.6826C36.7498 50.0712 20.0022 56.7416 2.37792 57.4028C2.35484 57.41 2.34685 57.4025 2.332 57.4023C2.34436 57.399 2.35755 57.3991 2.36981 57.4027C2.62158 57.3706 3.73831 57.2272 5.53268 57.0302C6.54157 56.8719 7.7705 56.7235 9.17002 56.4647C10.5695 56.206 12.1507 55.9069 13.8428 55.5105C14.6993 55.3368 15.5715 55.1084 16.475 54.8641C17.3786 54.6198 18.3197 54.3859 19.2701 54.086C20.2268 53.8086 21.1999 53.5165 22.1822 53.1621C23.1644 52.8077 24.1744 52.4948 25.1641 52.0906C26.1765 51.7079 27.1958 51.3177 28.2027 50.8577C29.2157 50.4325 30.2428 49.9727 31.242 49.4838C31.7578 49.2402 32.2642 48.9965 32.7786 48.7528L34.277 47.9603C35.2834 47.4441 36.2609 46.8715 37.2305 46.2913C39.1851 45.1579 41.0767 43.9344 42.898 42.6252C44.6947 41.3286 46.4377 40.0114 48.0383 38.6428C50.9815 36.1691 53.7193 33.4946 56.2282 30.6422C58.0219 28.6222 59.6967 26.515 61.2455 24.3294C62.1653 23.0454 62.7501 22.1866 62.9382 21.907C62.9386 21.8858 62.9617 21.8723 62.9688 21.8512C62.9772 21.836 62.9879 21.8217 63.0006 21.8092C63.0006 21.8092 62.9921 21.8303 62.9768 21.8588C62.9644 21.8765 62.9537 21.895 62.9449 21.9145C59.4085 28.1272 54.8303 33.7866 49.3805 38.6826Z" fill="white"/>
</g>
<g style="mix-blend-mode:multiply" opacity="0.25">
<path d="M71.4813 82.5736C63.5345 89.7158 52.8467 93.6588 41.7686 93.5356C30.6906 93.4124 20.1298 89.2329 12.4089 81.9165C12.4089 81.9165 12.6878 82.1378 13.2096 82.5488C13.7282 82.9835 14.5353 83.5486 15.5452 84.2779C16.5784 84.9851 17.8625 85.7999 19.3728 86.6632C21.0821 87.5908 22.8484 88.4255 24.663 89.1633C26.8106 90.0098 29.0277 90.6982 31.2935 91.222C33.8107 91.7852 36.3763 92.1475 38.9618 92.3047C41.7197 92.4625 44.4883 92.3756 47.2292 92.0451C50.0553 91.7192 52.8357 91.1131 55.5223 90.2372C58.2205 89.3839 60.8158 88.2737 63.2661 86.9246C65.64 85.6163 67.8734 84.1018 69.9359 82.4018C71.8687 80.799 73.6463 79.0436 75.2486 77.1558C76.682 75.4526 77.9643 73.6455 79.0831 71.7525C80.0336 70.1388 80.8696 68.4702 81.5861 66.757C82.2045 65.2153 82.6826 63.8417 83.0139 62.6983C83.3452 61.555 83.5797 60.6362 83.7043 60.0117C83.8023 59.534 83.8677 59.2393 83.9008 59.1124C82.8503 68.0242 78.4568 76.3236 71.4813 82.5736Z" fill="black"/>
</g>
<g style="mix-blend-mode:screen" opacity="0.4">
<path d="M47.2455 5.51897L43.2384 1.90607L37.7305 7.02399C35.6496 8.96329 33.5151 10.8683 31.4046 12.7936C29.2942 14.7189 27.1746 16.6228 25.0403 18.5129C22.9061 20.403 20.793 22.322 18.6238 24.198L15.3864 27.0109L13.8015 28.4084C13.275 28.9013 12.7193 29.3664 12.2457 29.8473C11.2466 30.8032 10.3059 31.8097 9.42791 32.8619C8.54271 33.9218 7.72429 35.0311 6.94469 36.1632C6.17146 37.2964 5.46587 38.4678 4.83108 39.6719C4.17995 40.8815 3.61066 42.127 3.08834 43.3929C2.6038 44.6617 2.11771 45.943 1.75385 47.2693C1.3758 48.553 1.07271 49.88 0.808937 51.1986C1.78288 42.1635 6.19302 33.7312 13.2566 27.3987L43.2232 0.464609L62.0033 18.2633C58.6395 15.5029 55.3742 12.6662 52.1104 9.81593L47.2455 5.51897Z" fill="white"/>
</g>
</g>
<path d="M102.648 77.416C100.536 77.416 98.68 76.9787 97.08 76.104C95.48 75.208 94.232 73.896 93.336 72.168C92.4613 70.44 92.024 68.3173 92.024 65.8C92.024 63.304 92.4613 61.1707 93.336 59.4C94.2107 57.6293 95.4693 56.2853 97.112 55.368C98.776 54.4293 100.771 53.96 103.096 53.96C104.376 53.96 105.688 54.1093 107.032 54.408C108.397 54.6853 109.784 55.112 111.192 55.688L110.84 61.768H107.576L106.68 58.152L107.544 58.888C106.861 58.6533 106.179 58.472 105.496 58.344C104.835 58.216 104.205 58.152 103.608 58.152C102.435 58.152 101.421 58.4293 100.568 58.984C99.736 59.5173 99.096 60.3387 98.648 61.448C98.2213 62.5573 98.008 63.9653 98.008 65.672C98.008 67.9973 98.4453 69.832 99.32 71.176C100.195 72.52 101.528 73.192 103.32 73.192C103.789 73.192 104.291 73.1387 104.824 73.032C105.379 72.9253 105.955 72.776 106.552 72.584L105.912 73.704V68.04L106.776 68.968L103.768 68.264V65.416L113.176 65.256V68.136L110.552 68.968L111.064 68.04V75.592C109.549 76.2107 108.077 76.6693 106.648 76.968C105.219 77.2667 103.885 77.416 102.648 77.416ZM121.85 77.384C119.418 77.384 116.879 76.7973 114.234 75.624L115.706 71.784C116.623 72.1893 117.53 72.5093 118.426 72.744C119.343 72.9787 120.196 73.096 120.986 73.096C121.711 73.096 122.34 72.9787 122.874 72.744C123.428 72.5093 123.855 72.168 124.154 71.72C124.452 71.2507 124.602 70.664 124.602 69.96C124.602 69.0213 124.335 68.3387 123.802 67.912C123.268 67.4853 122.5 67.208 121.498 67.08C120.495 66.952 119.311 66.888 117.946 66.888H115.578L116.026 54.376H129.434L129.338 58.6H119.93L121.498 57.672L121.178 64.04L119.738 62.888H121.69C123.844 62.888 125.562 63.1653 126.842 63.72C128.122 64.2747 129.039 65.064 129.594 66.088C130.17 67.0907 130.458 68.2747 130.458 69.64C130.458 71.368 130.084 72.808 129.338 73.96C128.591 75.112 127.567 75.976 126.266 76.552C124.964 77.1067 123.492 77.384 121.85 77.384ZM148.367 77.416C146.255 77.416 144.399 76.9787 142.799 76.104C141.199 75.208 139.951 73.896 139.055 72.168C138.18 70.44 137.743 68.3173 137.743 65.8C137.743 63.304 138.18 61.1707 139.055 59.4C139.929 57.6293 141.188 56.2853 142.831 55.368C144.495 54.4293 146.489 53.96 148.815 53.96C150.095 53.96 151.407 54.1093 152.751 54.408C154.116 54.6853 155.503 55.112 156.911 55.688L156.559 61.768H153.295L152.399 58.152L153.263 58.888C152.58 58.6533 151.897 58.472 151.215 58.344C150.553 58.216 149.924 58.152 149.327 58.152C148.153 58.152 147.14 58.4293 146.287 58.984C145.455 59.5173 144.815 60.3387 144.367 61.448C143.94 62.5573 143.727 63.9653 143.727 65.672C143.727 67.9973 144.164 69.832 145.039 71.176C145.913 72.52 147.247 73.192 149.039 73.192C149.508 73.192 150.009 73.1387 150.543 73.032C151.097 72.9253 151.673 72.776 152.271 72.584L151.631 73.704V68.04L152.495 68.968L149.487 68.264V65.416L158.895 65.256V68.136L156.271 68.968L156.783 68.04V75.592C155.268 76.2107 153.796 76.6693 152.367 76.968C150.937 77.2667 149.604 77.416 148.367 77.416ZM180.85 74.504L179.442 73.256L182.066 74.248V77H172.466V74.248L174.93 73.352L174.45 74.12L173.362 70.408L174.194 71.112H166.354L166.962 70.472L165.81 73.992L165.682 73.448L167.954 74.248V77H159.314V74.248L161.874 73.288L160.626 74.376L168.05 54.44L173.778 54.28L180.85 74.504ZM167.73 68.008L167.378 67.272H173.298L172.754 68.136L169.874 57.288L171.154 57.32L167.73 68.008ZM188.536 60.136C188.536 60.6693 188.738 61.1173 189.144 61.48C189.549 61.8427 190.082 62.1627 190.744 62.44C191.426 62.696 192.173 62.952 192.984 63.208C193.816 63.464 194.626 63.7733 195.416 64.136C196.226 64.4773 196.962 64.9147 197.624 65.448C198.306 65.96 198.85 66.6107 199.256 67.4C199.682 68.1893 199.896 69.1493 199.896 70.28C199.896 71.944 199.469 73.3093 198.616 74.376C197.762 75.4213 196.621 76.2 195.192 76.712C193.762 77.2027 192.194 77.448 190.488 77.448C189.314 77.448 188.109 77.3307 186.872 77.096C185.634 76.8827 184.418 76.552 183.224 76.104L183.416 69.64H186.584L187.352 73.416L186.84 72.552C187.437 72.8293 188.077 73.0427 188.76 73.192C189.442 73.3413 190.104 73.416 190.744 73.416C191.426 73.416 192.045 73.3307 192.6 73.16C193.154 72.968 193.602 72.7013 193.944 72.36C194.285 71.9973 194.456 71.5493 194.456 71.016C194.456 70.4187 194.253 69.9387 193.848 69.576C193.442 69.192 192.898 68.872 192.216 68.616C191.554 68.3387 190.818 68.0827 190.008 67.848C189.197 67.6133 188.386 67.336 187.576 67.016C186.786 66.6747 186.05 66.248 185.368 65.736C184.706 65.224 184.173 64.584 183.768 63.816C183.362 63.0267 183.16 62.0453 183.16 60.872C183.16 59.2933 183.533 58.0027 184.28 57C185.026 55.976 186.04 55.2187 187.32 54.728C188.621 54.216 190.082 53.96 191.704 53.96C192.834 53.96 194.029 54.0773 195.288 54.312C196.568 54.5467 197.826 54.8987 199.064 55.368L198.712 61.32H195.416L194.648 57.992L195.224 58.536C194.733 58.3653 194.21 58.2373 193.656 58.152C193.122 58.0453 192.578 57.992 192.024 57.992C191.405 57.992 190.829 58.0667 190.296 58.216C189.762 58.344 189.336 58.568 189.016 58.888C188.696 59.208 188.536 59.624 188.536 60.136ZM213.223 60.136C213.223 60.6693 213.426 61.1173 213.831 61.48C214.236 61.8427 214.77 62.1627 215.431 62.44C216.114 62.696 216.86 62.952 217.671 63.208C218.503 63.464 219.314 63.7733 220.103 64.136C220.914 64.4773 221.65 64.9147 222.311 65.448C222.994 65.96 223.538 66.6107 223.943 67.4C224.37 68.1893 224.583 69.1493 224.583 70.28C224.583 71.944 224.156 73.3093 223.303 74.376C222.45 75.4213 221.308 76.2 219.879 76.712C218.45 77.2027 216.882 77.448 215.175 77.448C214.002 77.448 212.796 77.3307 211.559 77.096C210.322 76.8827 209.106 76.552 207.911 76.104L208.103 69.64H211.271L212.039 73.416L211.527 72.552C212.124 72.8293 212.764 73.0427 213.447 73.192C214.13 73.3413 214.791 73.416 215.431 73.416C216.114 73.416 216.732 73.3307 217.287 73.16C217.842 72.968 218.29 72.7013 218.631 72.36C218.972 71.9973 219.143 71.5493 219.143 71.016C219.143 70.4187 218.94 69.9387 218.535 69.576C218.13 69.192 217.586 68.872 216.903 68.616C216.242 68.3387 215.506 68.0827 214.695 67.848C213.884 67.6133 213.074 67.336 212.263 67.016C211.474 66.6747 210.738 66.248 210.055 65.736C209.394 65.224 208.86 64.584 208.455 63.816C208.05 63.0267 207.847 62.0453 207.847 60.872C207.847 59.2933 208.22 58.0027 208.967 57C209.714 55.976 210.727 55.2187 212.007 54.728C213.308 54.216 214.77 53.96 216.391 53.96C217.522 53.96 218.716 54.0773 219.975 54.312C221.255 54.5467 222.514 54.8987 223.751 55.368L223.399 61.32H220.103L219.335 57.992L219.911 58.536C219.42 58.3653 218.898 58.2373 218.343 58.152C217.81 58.0453 217.266 57.992 216.711 57.992C216.092 57.992 215.516 58.0667 214.983 58.216C214.45 58.344 214.023 58.568 213.703 58.888C213.383 59.208 213.223 59.624 213.223 60.136ZM239.937 70.632H243.233L243.169 77H226.241V74.248L229.089 73.288L228.385 74.344V57.16L229.057 58.216L226.241 57.288V54.536L233.825 54.376H242.849V60.488H239.553L238.881 57.608L239.873 58.344H233.121L233.953 57.512V64.424L233.121 63.592H240.257V67.432H233.121L233.953 66.44V73.864L233.121 73.032H240.257L239.233 73.864L239.937 70.632ZM245.491 77V74.248L248.307 73.288L247.635 74.344V57.192L248.595 58.312L245.491 57.288V54.536L253.427 54.376H256.211C258.857 54.376 260.851 54.9307 262.195 56.04C263.539 57.128 264.211 58.696 264.211 60.744C264.211 62.5573 263.657 64.072 262.547 65.288C261.459 66.4827 259.71 67.2293 257.299 67.528L257.331 66.888C258.163 66.888 258.846 66.9947 259.379 67.208C259.934 67.4213 260.382 67.72 260.723 68.104C261.086 68.4667 261.406 68.9147 261.683 69.448L264.147 74.12L262.611 73.128L265.651 74.248V77H259.763L256.883 70.92C256.542 70.1307 256.243 69.5333 255.987 69.128C255.753 68.7227 255.475 68.456 255.155 68.328C254.835 68.2 254.355 68.1467 253.715 68.168L252.307 68.2L253.203 67.432V74.344L252.499 73.288L255.475 74.248V77H245.491ZM253.203 65.736L252.307 64.36H254.739C256.019 64.36 256.969 64.0933 257.587 63.56C258.227 63.0053 258.547 62.1947 258.547 61.128C258.547 60.2533 258.302 59.5707 257.811 59.08C257.321 58.568 256.553 58.312 255.507 58.312H252.307L253.203 57.48V65.736ZM273.008 77L266.32 57.288L267.6 58.248L264.784 57.288V54.536L274.736 54.376V57.128L271.824 58.12L272.464 56.776L276.848 72.168H276.08L280.944 57.128L281.392 58.216L278.704 57.288V54.536L287.536 54.376V57.128L284.72 58.088L285.968 57.16L278.928 77H273.008ZM298.097 57.128L295.409 58.216L295.953 57.416V74.088L295.409 73.32L298.097 74.248V77H288.241V74.248L290.865 73.352L290.385 74.088V57.416L291.057 58.248L288.241 57.288V54.536L298.097 54.376V57.128ZM309.847 77.416C308.076 77.416 306.444 76.9893 304.951 76.136C303.479 75.2613 302.295 73.96 301.399 72.232C300.524 70.504 300.087 68.36 300.087 65.8C300.087 63.3253 300.513 61.2027 301.367 59.432C302.241 57.6613 303.457 56.3067 305.015 55.368C306.593 54.4293 308.46 53.96 310.615 53.96C311.767 53.96 312.929 54.0987 314.103 54.376C315.297 54.6533 316.577 55.08 317.943 55.656L317.623 61.768H314.359L313.463 58.12L314.423 58.952C313.74 58.696 313.1 58.504 312.503 58.376C311.905 58.248 311.351 58.184 310.839 58.184C309.751 58.184 308.855 58.4613 308.151 59.016C307.447 59.5707 306.924 60.3707 306.583 61.416C306.241 62.44 306.071 63.688 306.071 65.16C306.071 66.9307 306.284 68.4027 306.711 69.576C307.137 70.728 307.745 71.5813 308.535 72.136C309.324 72.6907 310.22 72.968 311.223 72.968C311.991 72.968 312.801 72.808 313.655 72.488C314.508 72.168 315.383 71.688 316.279 71.048L318.295 74.216C316.929 75.304 315.521 76.1147 314.071 76.648C312.62 77.16 311.212 77.416 309.847 77.416ZM333.75 70.632H337.046L336.982 77H320.054V74.248L322.902 73.288L322.198 74.344V57.16L322.87 58.216L320.054 57.288V54.536L327.638 54.376H336.662V60.488H333.366L332.694 57.608L333.686 58.344H326.934L327.766 57.512V64.424L326.934 63.592H334.07V67.432H326.934L327.766 66.44V73.864L326.934 73.032H334.07L333.046 73.864L333.75 70.632ZM345.192 60.136C345.192 60.6693 345.394 61.1173 345.8 61.48C346.205 61.8427 346.738 62.1627 347.4 62.44C348.082 62.696 348.829 62.952 349.64 63.208C350.472 63.464 351.282 63.7733 352.072 64.136C352.882 64.4773 353.618 64.9147 354.28 65.448C354.962 65.96 355.506 66.6107 355.912 67.4C356.338 68.1893 356.552 69.1493 356.552 70.28C356.552 71.944 356.125 73.3093 355.272 74.376C354.418 75.4213 353.277 76.2 351.848 76.712C350.418 77.2027 348.85 77.448 347.144 77.448C345.97 77.448 344.765 77.3307 343.528 77.096C342.29 76.8827 341.074 76.552 339.88 76.104L340.072 69.64H343.24L344.008 73.416L343.496 72.552C344.093 72.8293 344.733 73.0427 345.416 73.192C346.098 73.3413 346.76 73.416 347.4 73.416C348.082 73.416 348.701 73.3307 349.256 73.16C349.81 72.968 350.258 72.7013 350.6 72.36C350.941 71.9973 351.112 71.5493 351.112 71.016C351.112 70.4187 350.909 69.9387 350.504 69.576C350.098 69.192 349.554 68.872 348.872 68.616C348.21 68.3387 347.474 68.0827 346.664 67.848C345.853 67.6133 345.042 67.336 344.232 67.016C343.442 66.6747 342.706 66.248 342.024 65.736C341.362 65.224 340.829 64.584 340.424 63.816C340.018 63.0267 339.816 62.0453 339.816 60.872C339.816 59.2933 340.189 58.0027 340.936 57C341.682 55.976 342.696 55.2187 343.976 54.728C345.277 54.216 346.738 53.96 348.36 53.96C349.49 53.96 350.685 54.0773 351.944 54.312C353.224 54.5467 354.482 54.8987 355.72 55.368L355.368 61.32H352.072L351.304 57.992L351.88 58.536C351.389 58.3653 350.866 58.2373 350.312 58.152C349.778 58.0453 349.234 57.992 348.68 57.992C348.061 57.992 347.485 58.0667 346.952 58.216C346.418 58.344 345.992 58.568 345.672 58.888C345.352 59.208 345.192 59.624 345.192 60.136Z" fill="#800020"/>
</svg>
