<svg width="389" height="94" viewBox="0 0 389 94" fill="none" xmlns="http://www.w3.org/2000/svg">
<path d="M0 0H389L335.425 94H0V0Z" fill="#CC2936"/>
<rect x="98" y="22" width="156" height="50" fill="white"/>
<path d="M121.595 45.0895C121.348 44.3139 121.016 43.6193 120.598 43.0057C120.189 42.3835 119.699 41.8551 119.128 41.4205C118.557 40.9773 117.905 40.6406 117.172 40.4105C116.447 40.1804 115.651 40.0653 114.781 40.0653C113.307 40.0653 111.977 40.4446 110.793 41.2031C109.608 41.9616 108.67 43.0739 107.98 44.5398C107.298 45.9972 106.957 47.7827 106.957 49.8963C106.957 52.0185 107.303 53.8125 107.993 55.2784C108.683 56.7443 109.629 57.8565 110.831 58.6151C112.033 59.3736 113.401 59.7528 114.935 59.7528C116.358 59.7528 117.598 59.4631 118.655 58.8835C119.72 58.304 120.543 57.4858 121.122 56.429C121.71 55.3636 122.004 54.1108 122.004 52.6705L123.027 52.8622H115.536V49.6023H125.827V52.581C125.827 54.7798 125.358 56.6889 124.42 58.3082C123.491 59.919 122.205 61.1634 120.56 62.0412C118.923 62.919 117.048 63.358 114.935 63.358C112.565 63.358 110.486 62.8125 108.696 61.7216C106.915 60.6307 105.526 59.0838 104.528 57.081C103.531 55.0696 103.033 52.6832 103.033 49.9219C103.033 47.8338 103.322 45.9588 103.902 44.2969C104.482 42.6349 105.295 41.2244 106.344 40.0653C107.401 38.8977 108.641 38.0071 110.064 37.3935C111.496 36.7713 113.06 36.4602 114.756 36.4602C116.17 36.4602 117.487 36.669 118.706 37.0866C119.933 37.5043 121.024 38.0966 121.979 38.8636C122.942 39.6307 123.739 40.5426 124.369 41.5994C125 42.6477 125.426 43.8111 125.648 45.0895H121.595ZM130.841 63V36.8182H140.174C142.202 36.8182 143.885 37.1676 145.223 37.8665C146.57 38.5653 147.576 39.5327 148.24 40.7685C148.905 41.9957 149.238 43.4148 149.238 45.0256C149.238 46.6278 148.901 48.0384 148.228 49.2571C147.563 50.4673 146.557 51.4091 145.211 52.0824C143.873 52.7557 142.189 53.0923 140.161 53.0923H133.091V49.6918H139.803C141.081 49.6918 142.121 49.5085 142.922 49.142C143.732 48.7756 144.324 48.2429 144.699 47.544C145.074 46.8452 145.262 46.0057 145.262 45.0256C145.262 44.0369 145.07 43.1804 144.686 42.456C144.311 41.7315 143.719 41.1776 142.909 40.794C142.108 40.402 141.056 40.206 139.752 40.206H134.792V63H130.841ZM143.766 51.1875L150.235 63H145.735L139.394 51.1875H143.766ZM176.787 49.9091C176.787 52.7045 176.276 55.108 175.253 57.1193C174.23 59.1222 172.828 60.6648 171.047 61.7472C169.275 62.821 167.259 63.358 165 63.358C162.733 63.358 160.709 62.821 158.928 61.7472C157.155 60.6648 155.757 59.1179 154.735 57.1065C153.712 55.0952 153.201 52.696 153.201 49.9091C153.201 47.1136 153.712 44.7145 154.735 42.7116C155.757 40.7003 157.155 39.1577 158.928 38.0838C160.709 37.0014 162.733 36.4602 165 36.4602C167.259 36.4602 169.275 37.0014 171.047 38.0838C172.828 39.1577 174.23 40.7003 175.253 42.7116C176.276 44.7145 176.787 47.1136 176.787 49.9091ZM172.875 49.9091C172.875 47.7784 172.53 45.9844 171.84 44.527C171.158 43.0611 170.221 41.9531 169.027 41.2031C167.843 40.4446 166.5 40.0653 165 40.0653C163.492 40.0653 162.145 40.4446 160.961 41.2031C159.776 41.9531 158.838 43.0611 158.148 44.527C157.466 45.9844 157.125 47.7784 157.125 49.9091C157.125 52.0398 157.466 53.8381 158.148 55.304C158.838 56.7614 159.776 57.8693 160.961 58.6278C162.145 59.3778 163.492 59.7528 165 59.7528C166.5 59.7528 167.843 59.3778 169.027 58.6278C170.221 57.8693 171.158 56.7614 171.84 55.304C172.53 53.8381 172.875 52.0398 172.875 49.9091ZM198.549 36.8182H202.512V54.0384C202.512 55.8707 202.082 57.4943 201.221 58.9091C200.36 60.3153 199.15 61.4233 197.59 62.233C196.031 63.0341 194.202 63.4347 192.106 63.4347C190.018 63.4347 188.194 63.0341 186.634 62.233C185.075 61.4233 183.864 60.3153 183.004 58.9091C182.143 57.4943 181.712 55.8707 181.712 54.0384V36.8182H185.663V53.7188C185.663 54.9034 185.923 55.956 186.442 56.8764C186.971 57.7969 187.717 58.5213 188.68 59.0497C189.643 59.5696 190.785 59.8295 192.106 59.8295C193.435 59.8295 194.582 59.5696 195.545 59.0497C196.516 58.5213 197.258 57.7969 197.769 56.8764C198.289 55.956 198.549 54.9034 198.549 53.7188V36.8182ZM208.255 63V36.8182H217.588C219.625 36.8182 221.312 37.1889 222.65 37.9304C223.988 38.6719 224.99 39.6861 225.654 40.973C226.319 42.2514 226.652 43.6918 226.652 45.294C226.652 46.9048 226.315 48.3537 225.642 49.6406C224.977 50.919 223.971 51.9332 222.625 52.6832C221.287 53.4247 219.603 53.7955 217.575 53.7955H211.157V50.446H217.217C218.504 50.446 219.548 50.2244 220.349 49.7812C221.15 49.3295 221.738 48.7159 222.113 47.9403C222.488 47.1648 222.676 46.2827 222.676 45.294C222.676 44.3054 222.488 43.4276 222.113 42.6605C221.738 41.8935 221.146 41.2926 220.336 40.858C219.535 40.4233 218.478 40.206 217.166 40.206H212.206V63H208.255ZM239.567 63.358C237.964 63.358 236.524 63.0511 235.246 62.4375C233.976 61.8153 232.962 60.9631 232.203 59.8807C231.445 58.7983 231.04 57.5625 230.989 56.1733H234.824C234.918 57.2983 235.416 58.223 236.32 58.9474C237.223 59.6719 238.305 60.0341 239.567 60.0341C240.572 60.0341 241.463 59.804 242.239 59.3438C243.023 58.875 243.636 58.2315 244.08 57.4134C244.531 56.5952 244.757 55.6619 244.757 54.6136C244.757 53.5483 244.527 52.598 244.067 51.7628C243.607 50.9276 242.972 50.2713 242.162 49.794C241.361 49.3168 240.44 49.0739 239.401 49.0653C238.608 49.0653 237.811 49.2017 237.01 49.4744C236.209 49.7472 235.561 50.1051 235.067 50.5483L231.449 50.0114L232.919 36.8182H247.314V40.206H236.205L235.374 47.5312H235.527C236.038 47.0369 236.716 46.6236 237.56 46.2912C238.412 45.9588 239.324 45.7926 240.295 45.7926C241.889 45.7926 243.308 46.1719 244.553 46.9304C245.805 47.6889 246.79 48.7244 247.506 50.0369C248.23 51.3409 248.588 52.8409 248.58 54.5369C248.588 56.233 248.205 57.7457 247.429 59.0753C246.662 60.4048 245.597 61.4531 244.233 62.2202C242.878 62.9787 241.322 63.358 239.567 63.358Z" fill="#CC2936"/>
<rect x="254.5" y="22.5" width="74" height="43" stroke="white"/>
<path d="M274.595 45.0895C274.348 44.3139 274.016 43.6193 273.598 43.0057C273.189 42.3835 272.699 41.8551 272.128 41.4205C271.557 40.9773 270.905 40.6406 270.172 40.4105C269.447 40.1804 268.651 40.0653 267.781 40.0653C266.307 40.0653 264.977 40.4446 263.793 41.2031C262.608 41.9616 261.67 43.0739 260.98 44.5398C260.298 45.9972 259.957 47.7827 259.957 49.8963C259.957 52.0185 260.303 53.8125 260.993 55.2784C261.683 56.7443 262.629 57.8565 263.831 58.6151C265.033 59.3736 266.401 59.7528 267.935 59.7528C269.358 59.7528 270.598 59.4631 271.655 58.8835C272.72 58.304 273.543 57.4858 274.122 56.429C274.71 55.3636 275.004 54.1108 275.004 52.6705L276.027 52.8622H268.536V49.6023H278.827V52.581C278.827 54.7798 278.358 56.6889 277.42 58.3082C276.491 59.919 275.205 61.1634 273.56 62.0412C271.923 62.919 270.048 63.358 267.935 63.358C265.565 63.358 263.486 62.8125 261.696 61.7216C259.915 60.6307 258.526 59.0838 257.528 57.081C256.531 55.0696 256.033 52.6832 256.033 49.9219C256.033 47.8338 256.322 45.9588 256.902 44.2969C257.482 42.6349 258.295 41.2244 259.344 40.0653C260.401 38.8977 261.641 38.0071 263.064 37.3935C264.496 36.7713 266.06 36.4602 267.756 36.4602C269.17 36.4602 270.487 36.669 271.706 37.0866C272.933 37.5043 274.024 38.0966 274.979 38.8636C275.942 39.6307 276.739 40.5426 277.369 41.5994C278 42.6477 278.426 43.8111 278.648 45.0895H274.595ZM285.244 63H281.051L290.473 36.8182H295.037L304.459 63H300.266L292.864 41.5739H292.659L285.244 63ZM285.947 52.7472H299.55V56.071H285.947V52.7472ZM322.309 43.696C322.172 42.4858 321.61 41.5483 320.621 40.8835C319.632 40.2102 318.388 39.8736 316.888 39.8736C315.814 39.8736 314.885 40.044 314.101 40.3849C313.317 40.7173 312.708 41.1776 312.273 41.7656C311.847 42.3452 311.634 43.0057 311.634 43.7472C311.634 44.3693 311.779 44.9062 312.069 45.358C312.367 45.8097 312.755 46.1889 313.232 46.4957C313.718 46.794 314.238 47.0455 314.792 47.25C315.346 47.446 315.878 47.608 316.39 47.7358L318.946 48.4006C319.782 48.6051 320.638 48.8821 321.516 49.2315C322.394 49.581 323.208 50.0412 323.958 50.6122C324.708 51.1832 325.313 51.8906 325.773 52.7344C326.242 53.5781 326.476 54.5881 326.476 55.7642C326.476 57.2472 326.093 58.5639 325.326 59.7145C324.567 60.8651 323.463 61.7727 322.015 62.4375C320.574 63.1023 318.831 63.4347 316.786 63.4347C314.826 63.4347 313.13 63.1236 311.698 62.5014C310.266 61.8793 309.145 60.9972 308.336 59.8551C307.526 58.7045 307.078 57.3409 306.993 55.7642H310.956C311.033 56.7102 311.34 57.4986 311.877 58.1293C312.422 58.7514 313.117 59.2159 313.961 59.5227C314.813 59.821 315.746 59.9702 316.76 59.9702C317.877 59.9702 318.87 59.7955 319.739 59.446C320.617 59.0881 321.307 58.5937 321.81 57.9631C322.313 57.3239 322.564 56.5781 322.564 55.7259C322.564 54.9503 322.343 54.3153 321.9 53.821C321.465 53.3267 320.873 52.9176 320.123 52.5938C319.381 52.2699 318.542 51.9844 317.604 51.7372L314.51 50.8935C312.414 50.3224 310.752 49.483 309.525 48.375C308.306 47.267 307.696 45.8011 307.696 43.9773C307.696 42.4687 308.105 41.152 308.924 40.027C309.742 38.902 310.85 38.0284 312.248 37.4062C313.645 36.7756 315.222 36.4602 316.978 36.4602C318.75 36.4602 320.314 36.7713 321.669 37.3935C323.033 38.0156 324.107 38.8722 324.891 39.9631C325.675 41.0455 326.084 42.2898 326.118 43.696H322.309Z" fill="white"/>
</svg>
