<?xml version="1.0" encoding="UTF-8"?>
<svg version="1.1" xmlns="http://www.w3.org/2000/svg" width="500" height="500">
<path d="M0 0 C165 0 330 0 500 0 C500 165 500 330 500 500 C335 500 170 500 0 500 C0 335 0 170 0 0 Z " fill="#FEFEFE" transform="translate(0,0)"/>
<path d="M0 0 C3.93420838 4.78947107 4.42452497 9.10258682 4.3359375 15.1796875 C3.52630041 21.97687329 0.05935895 28.03196113 -3.11328125 34.00390625 C-8.91889998 43.93968391 -8.91889998 43.93968391 -9 55 C-7.80610287 57.43652476 -6.41201804 59.67700258 -5 62 C-5.0625 64.3125 -5.0625 64.3125 -6 66 C-9 68 -9 68 -11.4609375 67.84765625 C-16.49493901 66.16707421 -19.52539291 61.54563751 -22.11328125 57.078125 C-24.49179978 51.62218677 -24.98532779 45.84627823 -24 40 C-22.46245879 36.31921952 -20.32495904 33.22910978 -18 30 C-11.09157411 20.33596603 -5.36321663 10.58696428 0 0 Z " fill="#FFA407" transform="translate(129,195)"/>
<path d="M0 0 C6.04293746 7.73563703 7.03698749 15.37906054 6 25 C4.75585899 29.99663083 3.08821206 33.7972393 -0.375 37.625 C-3.64697921 39.33889387 -5.35825238 39.68282768 -9 39 C-12.17239912 36.65518326 -13.8008949 35.25255206 -14.4296875 31.296875 C-13.84263651 26.79259284 -11.79812304 24.05413673 -9.25 20.375 C-4.87614598 13.77202993 -1.96070899 7.72577872 0 0 Z " fill="#FFA407" transform="translate(138,211)"/>
<path d="M0 0 C5.48607352 6.4004191 6.53110479 11.32005107 6.37109375 19.640625 C5.69472088 25.76357945 3.49108933 30.53960171 -0.90234375 34.87890625 C-7.32062292 39.99135511 -12.93802306 41.2779992 -21 41 C-20.76171875 39.171875 -20.76171875 39.171875 -20 37 C-18.14453125 35.578125 -18.14453125 35.578125 -15.8125 34.25 C-8.44539929 29.58416955 -3.36961438 22.42391709 -1 14 C-0.41140869 9.33578484 -0.13365029 4.69780774 0 0 Z " fill="#FFA60A" transform="translate(148,225)"/>
<path d="M0 0 C1.77049689 -0.05410687 3.54146849 -0.09284119 5.3125 -0.125 C6.29863281 -0.14820313 7.28476562 -0.17140625 8.30078125 -0.1953125 C11 0 11 0 14 2 C14.1875 5.625 14.1875 5.625 14 9 C13.01 9.33 12.02 9.66 11 10 C11.61875 11.134375 12.2375 12.26875 12.875 13.4375 C13.22304688 14.07558594 13.57109375 14.71367187 13.9296875 15.37109375 C14.91410024 17.16618315 14.91410024 17.16618315 17 18 C17 18.66 17 19.32 17 20 C15.35 20 13.7 20 12 20 C9 14.25 9 14.25 9 12 C7.68 12 6.36 12 5 12 C5 13.98 5 15.96 5 18 C5.66 18 6.32 18 7 18 C7 18.66 7 19.32 7 20 C4.69 20 2.38 20 0 20 C0 19.34 0 18.68 0 18 C0.66 18 1.32 18 2 18 C2 12.72 2 7.44 2 2 C1.34 2 0.68 2 0 2 C0 1.34 0 0.68 0 0 Z " fill="#800221" transform="translate(303,230)"/>
<path d="M0 0 C1.828125 0.0703125 1.828125 0.0703125 4 1 C5.13607609 3.33792501 5.97160504 5.42232156 6.75 7.875 C6.97042969 8.51308594 7.19085938 9.15117187 7.41796875 9.80859375 C8.37610794 12.65920663 9 14.9743871 9 18 C9.99 18 10.98 18 12 18 C12 18.66 12 19.32 12 20 C9.36 20 6.72 20 4 20 C4 19.34 4 18.68 4 18 C4.66 18 5.32 18 6 18 C6 17.01 6 16.02 6 15 C3.03 15 0.06 15 -3 15 C-3 15.99 -3 16.98 -3 18 C-2.34 18 -1.68 18 -1 18 C-1 18.66 -1 19.32 -1 20 C-3.31 20 -5.62 20 -8 20 C-8 19.34 -8 18.68 -8 18 C-7.34 18 -6.68 18 -6 18 C-5.81824219 17.3709375 -5.63648438 16.741875 -5.44921875 16.09375 C-3.84447416 10.62938892 -2.06414546 5.30780262 0 0 Z " fill="#8F1F3B" transform="translate(232,230)"/>
<path d="M0 0 C1.051875 -0.00386719 1.051875 -0.00386719 2.125 -0.0078125 C4 0.125 4 0.125 6 1.125 C6 2.775 6 4.425 6 6.125 C5.01 6.125 4.02 6.125 3 6.125 C3 5.135 3 4.145 3 3.125 C-2.01535052 3.45460216 -2.01535052 3.45460216 -6 6.125 C-6.54449943 11.3729231 -6.54449943 11.3729231 -4.8125 16.125 C-2.44004321 17.43394168 -0.6664882 17.34120175 2 17.125 C2.33 15.475 2.66 13.825 3 12.125 C2.34 12.125 1.68 12.125 1 12.125 C1 11.465 1 10.805 1 10.125 C3.31 10.125 5.62 10.125 8 10.125 C8 10.785 8 11.445 8 12.125 C7.34 12.125 6.68 12.125 6 12.125 C6 14.435 6 16.745 6 19.125 C2.50797535 20.87101232 -1.18982279 20.68338804 -5 20.125 C-8.0625 18.1875 -8.0625 18.1875 -10 15.125 C-10.94728069 10.44780161 -10.66588027 7.19040843 -8.125 3.125 C-5.28364542 0.45078393 -3.79646655 -0.0139576 0 0 Z " fill="#8A1533" transform="translate(214,229.875)"/>
<path d="M0 0 C0.99 0.33 1.98 0.66 3 1 C3 2.65 3 4.3 3 6 C2.34 6 1.68 6 1 6 C1 5.01 1 4.02 1 3 C-0.9490625 3.185625 -0.9490625 3.185625 -2.9375 3.375 C-3.66839844 3.44460937 -4.39929688 3.51421875 -5.15234375 3.5859375 C-5.76207031 3.72257813 -6.37179688 3.85921875 -7 4 C-8.17673198 6.35346396 -8.16623866 7.8806033 -8.1875 10.5 C-8.20167969 11.2940625 -8.21585938 12.088125 -8.23046875 12.90625 C-8.19666303 15.22033317 -8.19666303 15.22033317 -6 17 C-2.91652174 17.16681109 -2.91652174 17.16681109 0 17 C0.33 15.35 0.66 13.7 1 12 C0.01 12 -0.98 12 -2 12 C-2 11.34 -2 10.68 -2 10 C0.64 10 3.28 10 6 10 C6 10.66 6 11.32 6 12 C5.34 12 4.68 12 4 12 C4 14.31 4 16.62 4 19 C-0.06988317 20.35662772 -3.74611781 20.50678019 -8 20 C-10.5625 18.6875 -10.5625 18.6875 -12 16 C-12.8630716 10.60580248 -12.94909607 6.46678484 -9.9375 1.8125 C-6.3107192 -0.42530092 -4.19478364 -0.46608707 0 0 Z " fill="#860D2B" transform="translate(174,230)"/>
<path d="M0 0 C4.95 0 9.9 0 15 0 C15 1.65 15 3.3 15 5 C14.01 5 13.02 5 12 5 C12 4.34 12 3.68 12 3 C10.02 3 8.04 3 6 3 C6 4.98 6 6.96 6 9 C7.98 9 9.96 9 12 9 C12 9.66 12 10.32 12 11 C10.02 11 8.04 11 6 11 C6 13.31 6 15.62 6 18 C8.97065509 17.65772428 8.97065509 17.65772428 12 17 C12.33 16.34 12.66 15.68 13 15 C13.66 15 14.32 15 15 15 C15 16.65 15 18.3 15 20 C10.38 20 5.76 20 1 20 C1 19.34 1 18.68 1 18 C1.66 18 2.32 18 3 18 C3 12.72 3 7.44 3 2 C2.01 2 1.02 2 0 2 C0 1.34 0 0.68 0 0 Z " fill="#860D2B" transform="translate(369,230)"/>
<path d="M0 0 C0.66 0.33 1.32 0.66 2 1 C2 2.65 2 4.3 2 6 C1.34 6 0.68 6 0 6 C-0.33 5.34 -0.66 4.68 -1 4 C-2.98 4 -4.96 4 -7 4 C-6.33029489 7.06399866 -6.33029489 7.06399866 -4.15234375 8.16796875 C-3.05599609 8.67263672 -3.05599609 8.67263672 -1.9375 9.1875 C-1.20402344 9.53167969 -0.47054688 9.87585938 0.28515625 10.23046875 C0.85105469 10.48441406 1.41695313 10.73835937 2 11 C2.36636754 16.49551307 2.36636754 16.49551307 0.77734375 18.68359375 C-1.50013184 20.37042732 -2.8196226 20.34138037 -5.625 20.25 C-6.81996094 20.22679687 -6.81996094 20.22679687 -8.0390625 20.203125 C-10 20 -10 20 -11 19 C-11.04063832 17.33382885 -11.042721 15.66611905 -11 14 C-10.01 14 -9.02 14 -8 14 C-8 15.32 -8 16.64 -8 18 C-4.535 17.505 -4.535 17.505 -1 17 C-1.19641613 15.05829615 -1.19641613 15.05829615 -2 13 C-3.80723973 11.69235956 -3.80723973 11.69235956 -6 10.8125 C-9.96440129 9.03559871 -9.96440129 9.03559871 -11 8 C-11.28417861 5.30030316 -11.32477191 3.58864909 -10 1.1875 C-6.71320817 -0.76403265 -3.7786303 -0.23991304 0 0 Z " fill="#8D1A37" transform="translate(280,230)"/>
<path d="M0 0 C0.66 0.33 1.32 0.66 2 1 C2 2.65 2 4.3 2 6 C1.34 6 0.68 6 0 6 C0 5.01 0 4.02 0 3 C-2.31 3 -4.62 3 -7 3 C-6.80585817 4.9527548 -6.80585817 4.9527548 -6 7 C-4.18108701 8.16396813 -4.18108701 8.16396813 -2 8.9375 C1.85210035 10.7042007 1.85210035 10.7042007 3.25 13.5 C3 16 3 16 1.625 18.3125 C-2.12886712 20.72570029 -5.63963856 20.53951734 -10 20 C-11 19 -11 19 -11.0625 16.4375 C-11.041875 15.633125 -11.02125 14.82875 -11 14 C-10.01 14 -9.02 14 -8 14 C-7.67 14.99 -7.34 15.98 -7 17 C-5.35 17 -3.7 17 -2 17 C-2 15.68 -2 14.36 -2 13 C-4.64 11.68 -7.28 10.36 -10 9 C-10.1875 5.625 -10.1875 5.625 -10 2 C-6.33134759 -0.44576827 -4.32799657 -0.23607254 0 0 Z " fill="#8E1D39" transform="translate(398,230)"/>
<path d="M0 0 C4.62 0 9.24 0 14 0 C14 1.65 14 3.3 14 5 C13.01 5 12.02 5 11 5 C11 4.34 11 3.68 11 3 C9.02 3 7.04 3 5 3 C5 4.98 5 6.96 5 9 C6.98 9 8.96 9 11 9 C11 9.66 11 10.32 11 11 C9.02 11 7.04 11 5 11 C5 13.31 5 15.62 5 18 C7.31 18 9.62 18 12 18 C12 17.01 12 16.02 12 15 C12.66 15 13.32 15 14 15 C14 16.65 14 18.3 14 20 C9.38 20 4.76 20 0 20 C0 19.34 0 18.68 0 18 C0.66 18 1.32 18 2 18 C2 12.72 2 7.44 2 2 C1.34 2 0.68 2 0 2 C0 1.34 0 0.68 0 0 Z " fill="#8B1634" transform="translate(286,230)"/>
<path d="M0 0 C2.64 0 5.28 0 8 0 C8 0.66 8 1.32 8 2 C7.34 2 6.68 2 6 2 C6.2165625 2.61488281 6.433125 3.22976562 6.65625 3.86328125 C6.9346875 4.67152344 7.213125 5.47976562 7.5 6.3125 C7.7784375 7.11300781 8.056875 7.91351563 8.34375 8.73828125 C9 11 9 11 9 14 C9.66 14 10.32 14 11 14 C11.13277344 13.38511719 11.26554687 12.77023438 11.40234375 12.13671875 C11.66724609 10.92435547 11.66724609 10.92435547 11.9375 9.6875 C12.11152344 8.88699219 12.28554688 8.08648437 12.46484375 7.26171875 C13 5 13 5 14 2 C13.34 2 12.68 2 12 2 C12 1.34 12 0.68 12 0 C14.64 0 17.28 0 20 0 C20 0.66 20 1.32 20 2 C19.01 2 18.02 2 17 2 C16.80857422 3.04414063 16.80857422 3.04414063 16.61328125 4.109375 C15.95367814 7.21833231 15.12612005 10.21350804 14.1875 13.25 C13.87167969 14.30703125 13.55585938 15.3640625 13.23046875 16.453125 C12.82441406 17.29359375 12.41835938 18.1340625 12 19 C9.9230957 19.65917969 9.9230957 19.65917969 8 20 C7.59007812 18.78441406 7.18015625 17.56882813 6.7578125 16.31640625 C6.21392765 14.73163831 5.66963574 13.14701003 5.125 11.5625 C4.85558594 10.76005859 4.58617187 9.95761719 4.30859375 9.13085938 C4.04433594 8.36708984 3.78007812 7.60332031 3.5078125 6.81640625 C3.26691895 6.10943604 3.02602539 5.40246582 2.77783203 4.67407227 C2.11814241 2.79961195 2.11814241 2.79961195 0 2 C0 1.34 0 0.68 0 0 Z " fill="#90213D" transform="translate(320,230)"/>
<path d="M0 0 C3.96 0 7.92 0 12 0 C12 0.99 12 1.98 12 3 C9.36 3 6.72 3 4 3 C4 4.65 4 6.3 4 8 C4.94875 8.12375 5.8975 8.2475 6.875 8.375 C10 9 10 9 12 11 C12.55713272 16.23704755 12.55713272 16.23704755 10.7734375 18.6796875 C8.47752375 20.38898011 7.14141288 20.31049621 4.3125 20.1875 C3.50425781 20.16042969 2.69601563 20.13335937 1.86328125 20.10546875 C1.24839844 20.07066406 0.63351563 20.03585938 0 20 C0 19.01 0 18.02 0 17 C2.31 17 4.62 17 7 17 C7.33 15.35 7.66 13.7 8 12 C5.36 11.67 2.72 11.34 0 11 C0 7.37 0 3.74 0 0 Z " fill="#A1435A" transform="translate(182,230)"/>
<path d="M0 0 C1 1 1 1 1.0625 3.5625 C1.041875 4.366875 1.02125 5.17125 1 6 C0.34 6 -0.32 6 -1 6 C-1 5.01 -1 4.02 -1 3 C-3.31 3 -5.62 3 -8 3 C-7.80358387 4.94170385 -7.80358387 4.94170385 -7 7 C-5.19276027 8.30764044 -5.19276027 8.30764044 -3 9.1875 C0.96440129 10.96440129 0.96440129 10.96440129 2 12 C2.3125 14.375 2.3125 14.375 2 17 C0.5625 18.8125 0.5625 18.8125 -2 20 C-5.01771016 20.2389237 -7.98006841 20.17422682 -11 20 C-11 18.02 -11 16.04 -11 14 C-10.34 14 -9.68 14 -9 14 C-8.67 14.99 -8.34 15.98 -8 17 C-6.35 17 -4.7 17 -3 17 C-3 15.68 -3 14.36 -3 13 C-3.94875 12.54625 -4.8975 12.0925 -5.875 11.625 C-9 10 -9 10 -11 8 C-11.35131571 5.25973747 -11.34419875 3.62386024 -10 1.1875 C-6.72002335 -0.75998613 -3.76545255 -0.24293242 0 0 Z " fill="#8B1734" transform="translate(257,230)"/>
<path d="M0 0 C1.051875 -0.00386719 1.051875 -0.00386719 2.125 -0.0078125 C4 0.125 4 0.125 6 1.125 C6 2.775 6 4.425 6 6.125 C5.01 6.125 4.02 6.125 3 6.125 C3 5.135 3 4.145 3 3.125 C-2.01535052 3.45460216 -2.01535052 3.45460216 -6 6.125 C-6.54449943 11.3729231 -6.54449943 11.3729231 -4.8125 16.125 C-1.72446555 17.82874314 0.9616888 17.34949972 4.3125 16.625 C5.1478125 16.3775 5.1478125 16.3775 6 16.125 C5.67 17.115 5.34 18.105 5 19.125 C1.43528609 20.31323797 -1.2558336 20.38774852 -5 20.125 C-8.1850357 18.36484869 -8.83296972 17.62609084 -10 14.125 C-10.57279236 7.0223747 -10.57279236 7.0223747 -8.125 3.1875 C-5.29650024 0.44219141 -3.82908313 -0.01407751 0 0 Z " fill="#88112F" transform="translate(361,229.875)"/>
<path d="M0 0 C1.77049689 -0.05410687 3.54146849 -0.09284119 5.3125 -0.125 C6.29863281 -0.14820313 7.28476562 -0.17140625 8.30078125 -0.1953125 C11 0 11 0 14 2 C14.1875 5.625 14.1875 5.625 14 9 C12.02 9.99 12.02 9.99 10 11 C10 10.34 10 9.68 10 9 C8.35 9 6.7 9 5 9 C5 6.36 5 3.72 5 1 C3.35 1 1.7 1 0 1 C0 0.67 0 0.34 0 0 Z " fill="#952A45" transform="translate(303,230)"/>
<path d="M0 0 C2.64 0 5.28 0 8 0 C8 0.66 8 1.32 8 2 C7.01 2 6.02 2 5 2 C5 7.28 5 12.56 5 18 C5.99 18 6.98 18 8 18 C8 18.66 8 19.32 8 20 C5.36 20 2.72 20 0 20 C0 19.34 0 18.68 0 18 C0.66 18 1.32 18 2 18 C2 12.72 2 7.44 2 2 C1.34 2 0.68 2 0 2 C0 1.34 0 0.68 0 0 Z " fill="#8D1B37" transform="translate(341,230)"/>
<path d="M0 0 C2.64 0 5.28 0 8 0 C8 0.66 8 1.32 8 2 C7.01 2 6.02 2 5 2 C4.896875 2.639375 4.79375 3.27875 4.6875 3.9375 C3.76096927 8.06477326 2.38339371 12.00642949 1 16 C-0.32 16 -1.64 16 -3 16 C-3 15.34 -3 14.68 -3 14 C-2.34 14 -1.68 14 -1 14 C-0.86722656 13.38511719 -0.73445313 12.77023438 -0.59765625 12.13671875 C-0.42105469 11.32847656 -0.24445313 10.52023438 -0.0625 9.6875 C0.11152344 8.88699219 0.28554688 8.08648437 0.46484375 7.26171875 C1 5 1 5 2 2 C1.34 2 0.68 2 0 2 C0 1.34 0 0.68 0 0 Z " fill="#91233F" transform="translate(332,230)"/>
<path d="M0 0 C2.1875 -0.5 2.1875 -0.5 5 0 C6.5389132 1.95424488 7.70308481 3.96628367 8.88671875 6.15234375 C9.87076977 8.15842761 9.87076977 8.15842761 12 9 C12 9.66 12 10.32 12 11 C10.35 11 8.7 11 7 11 C4 5.25 4 5.25 4 3 C2.68 2.67 1.36 2.34 0 2 C0 1.34 0 0.68 0 0 Z " fill="#922440" transform="translate(308,239)"/>
<path d="M0 0 C0.33 1.32 0.66 2.64 1 4 C2.65 4 4.3 4 6 4 C6 4.33 6 4.66 6 5 C4.02 5.33 2.04 5.66 0 6 C-0.33 6.99 -0.66 7.98 -1 9 C-0.34 9 0.32 9 1 9 C1 9.66 1 10.32 1 11 C-1.31 11 -3.62 11 -6 11 C-6 10.34 -6 9.68 -6 9 C-5.34 9 -4.68 9 -4 9 C-3.71125 7.88625 -3.4225 6.7725 -3.125 5.625 C-2 2 -2 2 0 0 Z " fill="#860C2B" transform="translate(230,239)"/>
<path d="M0 0 C0.99 0.33 1.98 0.66 3 1 C3 2.65 3 4.3 3 6 C2.34 6 1.68 6 1 6 C1 5.01 1 4.02 1 3 C-0.6254308 3.14095064 -2.25034051 3.28792087 -3.875 3.4375 C-4.77992188 3.51871094 -5.68484375 3.59992188 -6.6171875 3.68359375 C-9.01110861 3.86989285 -9.01110861 3.86989285 -11 5 C-9.08053707 -0.75838878 -5.37967198 -0.28819671 0 0 Z " fill="#9C3951" transform="translate(174,230)"/>
<path d="M0 0 C2.64 0 5.28 0 8 0 C8 0.66 8 1.32 8 2 C7.34 2 6.68 2 6 2 C6 4.31 6 6.62 6 9 C4.68 9.33 3.36 9.66 2 10 C2.33 7.36 2.66 4.72 3 2 C2.01 2 1.02 2 0 2 C0 1.34 0 0.68 0 0 Z " fill="#962C47" transform="translate(172,240)"/>
<path d="M0 0 C1.65 0 3.3 0 5 0 C5.38218767 1.65614657 5.71395102 3.32457024 6 5 C5 6 5 6 2.4375 6.0625 C1.2309375 6.0315625 1.2309375 6.0315625 0 6 C0 4.02 0 2.04 0 0 Z " fill="#FDFCFC" transform="translate(308,233)"/>
<path d="M0 0 C7.75 -0.125 7.75 -0.125 10 1 C10 2.65 10 4.3 10 6 C9.01 6 8.02 6 7 6 C7 5.01 7 4.02 7 3 C5.02 3 3.04 3 1 3 C0.67 2.01 0.34 1.02 0 0 Z " fill="#9A344E" transform="translate(357,230)"/>
<path d="M0 0 C7.75 -0.125 7.75 -0.125 10 1 C10 2.65 10 4.3 10 6 C9.01 6 8.02 6 7 6 C7 5.01 7 4.02 7 3 C5.02 3 3.04 3 1 3 C0.67 2.01 0.34 1.02 0 0 Z " fill="#9B3851" transform="translate(210,230)"/>
<path d="M0 0 C4.95 0 9.9 0 15 0 C15 1.65 15 3.3 15 5 C14.01 5 13.02 5 12 5 C12 4.34 12 3.68 12 3 C10.02 3 8.04 3 6 3 C6 2.67 6 2.34 6 2 C4.02 2 2.04 2 0 2 C0 1.34 0 0.68 0 0 Z " fill="#AA556A" transform="translate(369,230)"/>
<path d="M0 0 C3.3 0 6.6 0 10 0 C10 0.33 10 0.66 10 1 C7.36 1 4.72 1 2 1 C2 2.98 2 4.96 2 7 C3.32 7.33 4.64 7.66 6 8 C6 8.33 6 8.66 6 9 C4.02 9 2.04 9 0 9 C0 6.03 0 3.06 0 0 Z " fill="#800121" transform="translate(183,231)"/>
<path d="M0 0 C0.66 0.33 1.32 0.66 2 1 C2.625 4.0625 2.625 4.0625 3 7 C1.35 7 -0.3 7 -2 7 C-1.125 2.25 -1.125 2.25 0 0 Z " fill="#EFE0E4" transform="translate(233,235)"/>
<path d="M0 0 C0.86625 0.3403125 0.86625 0.3403125 1.75 0.6875 C1.75 2.3375 1.75 3.9875 1.75 5.6875 C1.09 5.6875 0.43 5.6875 -0.25 5.6875 C-0.58 5.0275 -0.91 4.3675 -1.25 3.6875 C-3.77733235 3.03194881 -3.77733235 3.03194881 -6.25 2.6875 C-2.80384615 -0.38942308 -2.80384615 -0.38942308 0 0 Z " fill="#962D47" transform="translate(280.25,230.3125)"/>
<path d="M0 0 C0.66 0 1.32 0 2 0 C2 0.66 2 1.32 2 2 C2.99 1.67 3.98 1.34 5 1 C4.67 2.65 4.34 4.3 4 6 C3.01 6 2.02 6 1 6 C0.67 4.02 0.34 2.04 0 0 Z " fill="#830726" transform="translate(327,244)"/>
<path d="M0 0 C2.97 0 5.94 0 9 0 C9 1.65 9 3.3 9 5 C8.34 5 7.68 5 7 5 C7 4.01 7 3.02 7 2 C4.69 1.67 2.38 1.34 0 1 C0 0.67 0 0.34 0 0 Z " fill="#830726" transform="translate(168,231)"/>
<path d="M0 0 C2.64 0 5.28 0 8 0 C8 0.66 8 1.32 8 2 C4.71303767 2.79953138 3.28976808 3.09658936 0 2 C0 1.34 0 0.68 0 0 Z " fill="#98314B" transform="translate(332,230)"/>
</svg>
